<?xml version="1.0" encoding="utf-8"?>
<!-- Generator: Adobe Illustrator 24.0.1, SVG Export Plug-In . SVG Version: 6.00 Build 0)  -->
<svg version="1.1" id="图层_1" xmlns="http://www.w3.org/2000/svg" xmlns:xlink="http://www.w3.org/1999/xlink" x="0px" y="0px"
	 viewBox="0 0 200 200" style="enable-background:new 0 0 200 200;" xml:space="preserve">
<path d="M183.7,16.2c-18.1-18.1-50.1-17.5-83.8-0.8C66.2-1.3,34.2-1.9,16.1,16.2C1,31.3-1.1,55.9,8.1,83.1
	c-5.6,8.4-4.4,19.5,2.8,26.5c-12.1,29.6-11.6,57.5,5.1,74.3c18.1,18.1,50.1,17.5,83.8,0.8c33,16.4,65.3,17.7,83.8-0.8
	c18.5-18.5,17.2-50.8,0.8-83.8C200.9,67,202.2,34.7,183.7,16.2L183.7,16.2z M173.9,174.1c-20.8,20.8-71.9,6.4-113.2-34.9
	c-2.7-2.7-7.1-2.7-9.8,0s-2.7,7.1,0,9.8c10.3,10.3,21.7,19.5,34,27.3c-25.4,10.4-47.4,9.5-59.1-2.2c-12.1-12.1-12.2-34.2-2.3-58.8
	c0.6,0.1,1.2,0.2,1.8,0.2c11.5,0,20.8-9.3,20.8-20.8c0-4.5-1.5-8.7-4-12.1c5.6-7.7,11.9-14.9,18.6-21.7c2.7-2.7,2.7-7.1,0-9.8
	c-2.7-2.7-7.1-2.7-9.8,0c-7.3,7.4-14.1,15.2-20.2,23.7c-1.8-0.5-3.6-0.8-5.4-0.8c-1.8,0-3.6,0.3-5.4,0.8
	c-6.2-20.9-4.3-38.6,5.8-48.7c13.5-13.5,40.5-12.6,70.5,3.1c1.1,0.5,2.4,0.8,3.6,0.6c1.2,0.1,2.4-0.1,3.5-0.7
	c30-15.7,57-16.5,70.5-3.1c12.1,12.1,12.2,34.4,2.2,59.1c-4.4-7-9.3-13.7-14.6-20c1.4-2.5,2.3-5.4,2.3-8.4c0-9.5-7.8-17.3-17.3-17.3
	c-9.5,0-17.3,7.8-17.3,17.3s7.8,17.3,17.3,17.3c1.4,0,2.7-0.2,4-0.5c7,8.3,13.2,17.2,18.5,26.6c-6.8,12.2-16,24.7-27.3,36.4
	c-0.7-0.1-1.4-0.2-2.1-0.2c-7.9,0-14.9,5.4-16.8,13.1c-1.9,7.7,1.7,15.8,8.7,19.5c7.1,3.7,15.7,2.1,21-3.8
	c5.3-5.9,5.8-14.7,1.3-21.3c8.3-8.9,15.8-18.5,22.3-28.7C186.1,139.7,186,162,173.9,174.1L173.9,174.1z"/>
<path d="M101.5,74c-15.3,0-27.7,12.4-27.7,27.7s12.4,27.7,27.7,27.7s27.7-12.4,27.7-27.7C129.1,86.3,116.7,74,101.5,74z
	 M101.5,115.5c-7.6,0-13.8-6.2-13.8-13.8s6.2-13.8,13.8-13.8c7.6,0,13.8,6.2,13.8,13.8C115.3,109.3,109.1,115.5,101.5,115.5z"/>
</svg>
