<?xml version="1.0" standalone="no"?><!DOCTYPE svg PUBLIC "-//W3C//DTD SVG 1.1//EN" "http://www.w3.org/Graphics/SVG/1.1/DTD/svg11.dtd"><svg t="1747882510542" class="icon" viewBox="0 0 1028 1024" version="1.1" xmlns="http://www.w3.org/2000/svg" p-id="23287" xmlns:xlink="http://www.w3.org/1999/xlink" width="257" height="256"><path d="M824.32 849.92c-48.64 0-87.893333 39.253333-87.893333 87.04S775.68 1024 824.32 1024s87.893333-39.253333 87.893333-87.04S872.96 849.92 824.32 849.92z" p-id="23288"></path><path d="M135.68 856.746667c-41.813333 0-75.946667 33.28-75.946667 75.093333s34.133333 75.093333 75.946667 75.093333 75.946667-33.28 75.946667-75.093333S177.493333 856.746667 135.68 856.746667z" p-id="23289"></path><path d="M694.613333 361.813333c0-15.36-12.8-27.306667-28.16-27.306667L232.106667 334.506667c-15.36 0-28.16 11.946667-28.16 27.306667l0 23.893333c0 15.36 12.8 27.306667 28.16 27.306667l434.346667 0c15.36 0 28.16-11.946667 28.16-27.306667L694.613333 361.813333z" p-id="23290"></path><path d="M667.306667 524.8 232.96 524.8c-15.36 0-28.16 11.946667-28.16 27.306667l0 23.893333c0 15.36 12.8 27.306667 28.16 27.306667L667.306667 603.306667c15.36 0 28.16-11.946667 28.16-27.306667l0-23.893333C694.613333 536.746667 682.666667 524.8 667.306667 524.8z" p-id="23291"></path><path d="M996.693333 0l-48.64 0c-83.626667 0-151.04 66.56-151.04 148.48l0 498.346667c0 35.84-29.866667 64.853333-66.56 64.853333L151.04 711.68c-36.693333 0-66.56-29.013333-66.56-64.853333L84.48 290.986667c0-35.84 29.866667-64.853333 66.56-64.853333l506.88 0c17.066667 0 30.72-13.653333 30.72-29.866667l0-23.893333c0-16.213333-13.653333-29.866667-30.72-29.866667L151.04 142.506667c-83.626667 0-151.04 66.56-151.04 148.48l0 355.84c0 81.92 67.413333 148.48 151.04 148.48l579.413333 0c83.626667 0 151.04-66.56 151.04-148.48L881.493333 148.48c0-35.84 29.866667-64.853333 66.56-64.853333l48.64 0c17.066667 0 30.72-13.653333 30.72-29.866667L1027.413333 29.866667C1026.56 12.8 1012.906667 0 996.693333 0z" p-id="23292"></path></svg>